<svg width="40" height="32" viewBox="0 0 40 32" fill="none" xmlns="http://www.w3.org/2000/svg">
<path fill-rule="evenodd" clip-rule="evenodd" d="M22 23C26.9706 23 31 18.9706 31 14C31 9.02944 26.9706 5 22 5C17.0294 5 13 9.02944 13 14C13 18.9706 17.0294 23 22 23Z" fill="#FFAA00"/>
<path fill-rule="evenodd" clip-rule="evenodd" d="M22 3C21.4477 3 21 2.55228 21 2V1C21 0.447715 21.4477 0 22 0V0C22.5523 0 23 0.447715 23 1V2C23 2.55228 22.5523 3 22 3V3ZM27.5001 4.47381C27.0218 4.19767 26.8579 3.58608 27.134 3.10778L27.634 2.24176C27.9102 1.76346 28.5218 1.59959 29.0001 1.87573V1.87573C29.4784 2.15187 29.6422 2.76347 29.3661 3.24176L28.8661 4.10778C28.5899 4.58608 27.9784 4.74995 27.5001 4.47381V4.47381ZM33 14C33 13.4477 33.4477 13 34 13H35C35.5523 13 36 13.4477 36 14V14C36 14.5523 35.5523 15 35 15H34C33.4477 15 33 14.5523 33 14V14ZM34.1243 7C33.8482 6.52171 33.2366 6.35783 32.7583 6.63397L31.8923 7.13397C31.414 7.41012 31.2501 8.02171 31.5263 8.5V8.5C31.8024 8.97829 32.414 9.14217 32.8923 8.86603L33.7583 8.36603C34.2366 8.08988 34.4005 7.47829 34.1243 7V7ZM15 1.87573C14.5217 2.15187 14.3578 2.76347 14.634 3.24176L15.134 4.10778C15.4101 4.58608 16.0217 4.74995 16.5 4.47381V4.47381C16.9783 4.19767 17.1422 3.58608 16.866 3.10778L16.366 2.24176C16.0899 1.76347 15.4783 1.59959 15 1.87573V1.87573ZM12.4737 8.5C12.1976 8.97829 11.586 9.14217 11.1077 8.86603L10.2417 8.36603C9.7634 8.08988 9.59953 7.47829 9.87567 7V7C10.1518 6.52171 10.7634 6.35783 11.2417 6.63397L12.1077 7.13397C12.586 7.41012 12.7499 8.02171 12.4737 8.5V8.5ZM22 25C21.4477 25 21 25.4477 21 26V27C21 27.5523 21.4477 28 22 28V28C22.5523 28 23 27.5523 23 27V26C23 25.4477 22.5523 25 22 25V25ZM11 14C11 13.4477 10.5523 13 10 13H9C8.44772 13 8 13.4477 8 14V14C8 14.5523 8.44772 15 9 15H10C10.5523 15 11 14.5523 11 14V14ZM9.87562 21C9.59948 20.5217 9.76335 19.9101 10.2416 19.634L11.1077 19.134C11.586 18.8578 12.1976 19.0217 12.4737 19.5V19.5C12.7498 19.9783 12.586 20.5899 12.1077 20.866L11.2416 21.366C10.7634 21.6422 10.1518 21.4783 9.87562 21V21ZM16.5001 23.5264C16.0218 23.2502 15.4102 23.4141 15.134 23.8924L14.634 24.7584C14.3579 25.2367 14.5218 25.8483 15.0001 26.1244V26.1244C15.4784 26.4006 16.0899 26.2367 16.3661 25.7584L16.8661 24.8924C17.1422 24.4141 16.9784 23.8025 16.5001 23.5264V23.5264ZM29 26.1244C28.5217 26.4006 27.9101 26.2367 27.634 25.7584L27.134 24.8924C26.8578 24.4141 27.0217 23.8025 27.5 23.5264V23.5264C27.9783 23.2502 28.5899 23.4141 28.866 23.8924L29.366 24.7584C29.6422 25.2367 29.4783 25.8483 29 26.1244V26.1244ZM31.5263 19.5C31.2502 19.9783 31.414 20.5899 31.8923 20.866L32.7584 21.366C33.2366 21.6422 33.8482 21.4783 34.1244 21V21C34.4005 20.5217 34.2366 19.9101 33.7584 19.634L32.8923 19.134C32.414 18.8578 31.8024 19.0217 31.5263 19.5V19.5Z" fill="#FFF999"/>
<path fill-rule="evenodd" clip-rule="evenodd" d="M32 30C36.4183 30 40 26.4183 40 22C40 17.5817 36.4183 14 32 14C28.219 14 25.0506 16.6231 24.2153 20.1487C23.8262 20.0516 23.4191 20 23 20C20.2386 20 18 22.2386 18 25C18 27.7614 20.2386 30 23 30C26.4791 30 28.2567 30 32 30Z" fill="url(#paint0_linear_2222_1281)"/>
<path fill-rule="evenodd" clip-rule="evenodd" d="M11 32C4.9248 32 0 27.0752 0 21C0 14.9248 4.9248 10 11 10C15.78 10 19.8481 13.0488 21.3652 17.3081C22.0417 17.1077 22.7583 17 23.5 17C27.6421 17 31 20.3579 31 24.5C31 28.6421 27.6421 32 23.5 32C18.6778 32 16.098 32 11 32Z" fill="url(#paint1_linear_2222_1281)"/>
<defs>
<linearGradient id="paint0_linear_2222_1281" x1="29" y1="14" x2="29" y2="30" gradientUnits="userSpaceOnUse">
<stop stop-color="#AFD4FF"/>
<stop offset="1" stop-color="#EBF4FF"/>
</linearGradient>
<linearGradient id="paint1_linear_2222_1281" x1="15.5" y1="10" x2="15.5" y2="32" gradientUnits="userSpaceOnUse">
<stop stop-color="#C8E1FF"/>
<stop offset="1" stop-color="#F8FBFF"/>
</linearGradient>
</defs>
</svg>
