<svg width="18" height="24" viewBox="0 0 18 24" fill="#82B6FF" xmlns="http://www.w3.org/2000/svg">
<path fill-rule="evenodd" clip-rule="evenodd" d="M16 16.3638C16 19.1811 13.1867 22 9 22C4.81327 22 2 19.1811 2 16.3638C2 13.4416 3.9006 9.8024 6.13452 6.6343C6.84057 5.63299 7.54841 4.72195 8.18125 3.9495C8.57616 3.46747 9.31157 3.4778 9.6953 3.96877C10.3559 4.81404 11.1036 5.81543 11.8493 6.90552C12.9378 8.49674 13.9966 10.2398 14.7767 11.9363C15.5711 13.6638 16 15.1806 16 16.3638ZM0 16.3638C0 10.927 5.13123 4.37097 7.64477 1.48563C7.88035 1.21521 8.09293 0.97703 8.27614 0.775037C8.66277 0.348774 9.32319 0.361782 9.6955 0.800608C9.87178 1.00839 10.0765 1.25286 10.3037 1.52955C12.7979 4.56699 18 11.4867 18 16.3638C18 20.5812 13.9706 24 9 24C4.02944 24 0 20.5812 0 16.3638ZM4.29064 13.6457C4.40196 13.2544 4.7699 13 5.17675 13V13C5.87137 13 6.33149 13.7146 6.16073 14.3879C6.05675 14.7979 6 15.1869 6 15.5455C6 16.4723 6.73409 17.5075 8.01174 17.8679C8.54328 18.0178 9 18.4477 9 19V19C9 19.5523 8.54864 20.0096 8.00508 19.9118C5.72031 19.5008 4 17.7022 4 15.5455C4 14.9301 4.10737 14.29 4.29064 13.6457Z" />
</svg>
