<svg width="6" height="9" viewBox="0 0 6 9" fill="none" xmlns="http://www.w3.org/2000/svg">
<path fill-rule="evenodd" clip-rule="evenodd" d="M3 9C3 9 6 6 6 3C6 1.34315 4.65685 0 3 0C1.34315 0 0 1.34315 0 3C0 6 3 9 3 9ZM3 4.5C3.82843 4.5 4.5 3.82843 4.5 3C4.5 2.17157 3.82843 1.5 3 1.5C2.17157 1.5 1.5 2.17157 1.5 3C1.5 3.82843 2.17157 4.5 3 4.5Z" fill="#E8B931"/>
<path fill-rule="evenodd" clip-rule="evenodd" d="M3 4.13477C3.62128 4.13477 4.125 3.63104 4.125 3.00977C4.125 2.38849 3.62128 1.88477 3 1.88477C2.37872 1.88477 1.875 2.38849 1.875 3.00977C1.875 3.63104 2.37872 4.13477 3 4.13477ZM2.52576 2.73584L3 3.55743L3.47424 2.73584H2.52576Z" fill="#E8B931"/>
</svg>
