<svg width="24" height="24" viewBox="0 0 24 24" fill="none" xmlns="http://www.w3.org/2000/svg">
<path fill-rule="evenodd" clip-rule="evenodd" d="M12.0001 24C18.6275 24 24.0001 18.6275 24.0001 12C24.0001 5.37263 18.6275 4.95911e-05 12.0001 4.95911e-05C11.0764 4.95911e-05 10.1771 0.104406 9.31334 0.301971C8.79261 0.421077 8.87923 1.23387 9.38155 1.41559C12.0751 2.39001 14.0001 4.97024 14.0001 8.00005C14.0001 11.866 10.866 15 7.00005 15C4.54013 15 2.37658 13.7312 1.12819 11.8122C0.831574 11.3563 5.24177e-05 11.4561 5.24177e-05 12V12C5.24177e-05 18.6275 5.37264 24 12.0001 24Z" fill="#FFF000"/>
<path d="M3.17799 5.84582C3.29233 5.49391 3.79019 5.49391 3.90453 5.84582V5.84582C3.95567 6.0032 4.10232 6.10975 4.2678 6.10975V6.10975C4.63782 6.10975 4.79167 6.58324 4.49232 6.80073V6.80073C4.35844 6.898 4.30242 7.0704 4.35356 7.22778V7.22778C4.4679 7.57969 4.06513 7.87233 3.76577 7.65483V7.65483C3.6319 7.55757 3.45062 7.55757 3.31675 7.65483V7.65483C3.01739 7.87233 2.61462 7.57969 2.72896 7.22778V7.22778C2.7801 7.0704 2.72408 6.898 2.5902 6.80073V6.80073C2.29085 6.58324 2.4447 6.10975 2.81472 6.10975V6.10975C2.98019 6.10975 3.12685 6.0032 3.17799 5.84582V5.84582Z" fill="#B6CADE"/>
<path d="M8.17799 3.84582C8.29233 3.49391 8.79019 3.49391 8.90453 3.84582V3.84582C8.95567 4.0032 9.10232 4.10975 9.2678 4.10975V4.10975C9.63782 4.10975 9.79167 4.58324 9.49232 4.80073V4.80073C9.35844 4.898 9.30242 5.0704 9.35356 5.22778V5.22778C9.4679 5.57969 9.06513 5.87233 8.76577 5.65483V5.65483C8.6319 5.55757 8.45062 5.55757 8.31675 5.65483V5.65483C8.01739 5.87233 7.61462 5.57969 7.72896 5.22778V5.22778C7.7801 5.0704 7.72408 4.898 7.5902 4.80073V4.80073C7.29085 4.58324 7.4447 4.10975 7.81472 4.10975V4.10975C7.98019 4.10975 8.12685 4.0032 8.17799 3.84582V3.84582Z" fill="#B6CADE"/>
<path d="M6.17799 8.84582C6.29233 8.49391 6.79019 8.49391 6.90453 8.84582V8.84582C6.95567 9.0032 7.10232 9.10975 7.2678 9.10975V9.10975C7.63782 9.10975 7.79167 9.58324 7.49232 9.80073V9.80073C7.35844 9.898 7.30242 10.0704 7.35356 10.2278V10.2278C7.4679 10.5797 7.06513 10.8723 6.76577 10.6548V10.6548C6.6319 10.5576 6.45062 10.5576 6.31675 10.6548V10.6548C6.01739 10.8723 5.61462 10.5797 5.72896 10.2278V10.2278C5.7801 10.0704 5.72408 9.898 5.5902 9.80073V9.80073C5.29085 9.58324 5.4447 9.10975 5.81472 9.10975V9.10975C5.98019 9.10975 6.12685 9.0032 6.17799 8.84582V8.84582Z" fill="#B6CADE"/>
</svg>
