<svg width="40" height="32" viewBox="0 0 40 32" fill="none" xmlns="http://www.w3.org/2000/svg">
<path fill-rule="evenodd" clip-rule="evenodd" d="M25.0001 24C31.6275 24 37.0001 18.6275 37.0001 12C37.0001 5.37263 31.6275 4.95911e-05 25.0001 4.95911e-05C24.0764 4.95911e-05 23.1771 0.104406 22.3133 0.301971C21.7926 0.421077 21.8792 1.23387 22.3816 1.41559C25.0751 2.39001 27.0001 4.97024 27.0001 8.00005C27.0001 11.866 23.866 15 20.0001 15C17.5401 15 15.3766 13.7312 14.1282 11.8122C13.8316 11.3563 13.0001 11.4561 13.0001 12V12C13.0001 18.6275 18.3726 24 25.0001 24Z" fill="#FFF000"/>
<path d="M16.178 5.84582C16.2923 5.49391 16.7902 5.49391 16.9045 5.84582V5.84582C16.9557 6.0032 17.1023 6.10975 17.2678 6.10975V6.10975C17.6378 6.10975 17.7917 6.58324 17.4923 6.80073V6.80073C17.3584 6.898 17.3024 7.0704 17.3536 7.22778V7.22778C17.4679 7.57969 17.0651 7.87233 16.7658 7.65483V7.65483C16.6319 7.55757 16.4506 7.55757 16.3167 7.65483V7.65483C16.0174 7.87233 15.6146 7.57969 15.729 7.22778V7.22778C15.7801 7.0704 15.7241 6.898 15.5902 6.80073V6.80073C15.2909 6.58324 15.4447 6.10975 15.8147 6.10975V6.10975C15.9802 6.10975 16.1269 6.0032 16.178 5.84582V5.84582Z" fill="#B6CADE"/>
<path d="M21.178 3.84582C21.2923 3.49391 21.7902 3.49391 21.9045 3.84582V3.84582C21.9557 4.0032 22.1023 4.10975 22.2678 4.10975V4.10975C22.6378 4.10975 22.7917 4.58324 22.4923 4.80073V4.80073C22.3584 4.898 22.3024 5.0704 22.3536 5.22778V5.22778C22.4679 5.57969 22.0651 5.87233 21.7658 5.65483V5.65483C21.6319 5.55757 21.4506 5.55757 21.3167 5.65483V5.65483C21.0174 5.87233 20.6146 5.57969 20.729 5.22778V5.22778C20.7801 5.0704 20.7241 4.898 20.5902 4.80073V4.80073C20.2909 4.58324 20.4447 4.10975 20.8147 4.10975V4.10975C20.9802 4.10975 21.1269 4.0032 21.178 3.84582V3.84582Z" fill="#B6CADE"/>
<path d="M19.178 8.84582C19.2923 8.49391 19.7902 8.49391 19.9045 8.84582V8.84582C19.9557 9.0032 20.1023 9.10975 20.2678 9.10975V9.10975C20.6378 9.10975 20.7917 9.58324 20.4923 9.80073V9.80073C20.3584 9.898 20.3024 10.0704 20.3536 10.2278V10.2278C20.4679 10.5797 20.0651 10.8723 19.7658 10.6548V10.6548C19.6319 10.5576 19.4506 10.5576 19.3167 10.6548V10.6548C19.0174 10.8723 18.6146 10.5797 18.729 10.2278V10.2278C18.7801 10.0704 18.7241 9.898 18.5902 9.80073V9.80073C18.2909 9.58324 18.4447 9.10975 18.8147 9.10975V9.10975C18.9802 9.10975 19.1269 9.0032 19.178 8.84582V8.84582Z" fill="#B6CADE"/>
<path fill-rule="evenodd" clip-rule="evenodd" d="M32 30C36.4183 30 40 26.4183 40 22C40 17.5817 36.4183 14 32 14C28.219 14 25.0506 16.6231 24.2153 20.1487C23.8262 20.0516 23.4191 20 23 20C20.2386 20 18 22.2386 18 25C18 27.7614 20.2386 30 23 30C26.4791 30 28.2567 30 32 30Z" fill="url(#paint0_linear_2222_1309)"/>
<path fill-rule="evenodd" clip-rule="evenodd" d="M11 32C4.9248 32 0 27.0752 0 21C0 14.9248 4.9248 10 11 10C15.78 10 19.8481 13.0488 21.3652 17.3081C22.0417 17.1077 22.7583 17 23.5 17C27.6421 17 31 20.3579 31 24.5C31 28.6421 27.6421 32 23.5 32C18.6778 32 16.098 32 11 32Z" fill="url(#paint1_linear_2222_1309)"/>
<defs>
<linearGradient id="paint0_linear_2222_1309" x1="29" y1="14" x2="29" y2="30" gradientUnits="userSpaceOnUse">
<stop stop-color="#FDCC6F"/>
<stop offset="1" stop-color="#F9DE80"/>
</linearGradient>
<linearGradient id="paint1_linear_2222_1309" x1="15.5" y1="10" x2="15.5" y2="32" gradientUnits="userSpaceOnUse">
<stop stop-color="#F5BD52"/>
<stop offset="1" stop-color="#F5DA79"/>
</linearGradient>
</defs>
</svg>
