<svg width="32" height="31" viewBox="0 0 32 31" fill="none" xmlns="http://www.w3.org/2000/svg">
<path fill-rule="evenodd" clip-rule="evenodd" d="M11.3548 22C5.08367 22 0 17.0752 0 11C0 4.9248 5.08367 0 11.3548 0C16.2891 0 20.4884 3.04883 22.0544 7.30811C22.7528 7.10767 23.4924 7 24.2581 7C28.5338 7 32 10.3579 32 14.5C32 18.6421 28.5338 22 24.2581 22C19.2804 22 16.6173 22 11.3548 22Z" fill="url(#paint0_linear_2222_1778)"/>
<path d="M10 30C10 29.2 10.6667 27.6667 11 27C11.3333 27.6667 12 29.2 12 30C12 30.8 11.3333 31 11 31C10.6667 31 10 30.8 10 30Z" fill="#B2D4F7"/>
<path d="M10 24C10 23.2 10.6667 22.3333 11 22C11.3333 22.3333 12 23.2 12 24C12 24.8 11.3333 25 11 25C10.6667 25 10 24.8 10 24Z" fill="#B2D4F7"/>
<path d="M10 19C10 18.2 10.6667 16.6667 11 16C11.3333 16.6667 12 18.2 12 19C12 19.8 11.3333 20 11 20C10.6667 20 10 19.8 10 19Z" fill="#B2D4F7"/>
<path d="M20 25C20 24.2 20.6667 22.6667 21 22C21.3333 22.6667 22 24.2 22 25C22 25.8 21.3333 26 21 26C20.6667 26 20 25.8 20 25Z" fill="#B2D4F7"/>
<path d="M20 30C20 29.2 20.6667 28.3333 21 28C21.3333 28.3333 22 29.2 22 30C22 30.8 21.3333 31 21 31C20.6667 31 20 30.8 20 30Z" fill="#B2D4F7"/>
<path d="M20 19C20 18.2 20.6667 16.6667 21 16C21.3333 16.6667 22 18.2 22 19C22 19.8 21.3333 20 21 20C20.6667 20 20 19.8 20 19Z" fill="#B2D4F7"/>
<path d="M15 28C15 27.2 15.6667 26.3333 16 26C16.3333 26.3333 17 27.2 17 28C17 28.8 16.3333 29 16 29C15.6667 29 15 28.8 15 28Z" fill="#B2D4F7"/>
<path d="M15 23C15 22.2 15.6667 21.3333 16 21C16.3333 21.3333 17 22.2 17 23C17 23.8 16.3333 24 16 24C15.6667 24 15 23.8 15 23Z" fill="#B2D4F7"/>
<path d="M15 18C15 17.2 15.6667 16.3333 16 16C16.3333 16.3333 17 17.2 17 18C17 18.8 16.3333 19 16 19C15.6667 19 15 18.8 15 18Z" fill="#B2D4F7"/>
<defs>
<linearGradient id="paint0_linear_2222_1778" x1="16" y1="0" x2="16" y2="22" gradientUnits="userSpaceOnUse">
<stop stop-color="#95B6F6"/>
<stop offset="1" stop-color="#335781"/>
</linearGradient>
</defs>
</svg>
