<svg width="32" height="31" viewBox="0 0 32 31" fill="none" xmlns="http://www.w3.org/2000/svg">
<path fill-rule="evenodd" clip-rule="evenodd" d="M11.3548 22C5.08367 22 0 17.0752 0 11C0 4.9248 5.08367 0 11.3548 0C16.2891 0 20.4884 3.04883 22.0544 7.30811C22.7528 7.10767 23.4924 7 24.2581 7C28.5338 7 32 10.3579 32 14.5C32 18.6421 28.5338 22 24.2581 22C19.2804 22 16.6173 22 11.3548 22Z" fill="url(#paint0_linear_2222_1779)"/>
<path d="M9 24C9 23.2 9.66667 21.6667 10 21C10.3333 21.6667 11 23.2 11 24C11 24.8 10.3333 25 10 25C9.66667 25 9 24.8 9 24Z" fill="#B2D4F7"/>
<path d="M18 18C18 17.2 18.6667 15.6667 19 15C19.3333 15.6667 20 17.2 20 18C20 18.8 19.3333 19 19 19C18.6667 19 18 18.8 18 18Z" fill="#B2D4F7"/>
<path d="M18 30C18 29.2 18.6667 27.6667 19 27C19.3333 27.6667 20 29.2 20 30C20 30.8 19.3333 31 19 31C18.6667 31 18 30.8 18 30Z" fill="#B2D4F7"/>
<path fill-rule="evenodd" clip-rule="evenodd" d="M13.0789 18.5762L12.9941 19L12.9144 18.6014L12.5294 18.8764L12.8765 18.3906V17.9488L12.3968 17.7502L12.118 18.029L12.0084 18.6865L11.9235 18.177L11.5639 18.4167L11.7894 18.0785L11.3227 18.0007L11.9117 17.9026L12.2385 17.5758L12.0487 17.1176H11.5882L11.5733 17.1146L11.0832 17.4647L11.3632 17.0726L11 17L11.3885 16.9223L11.0832 16.495L11.6256 16.8823H12.0487L12.237 16.4277L11.9008 16.0915L11.8924 16.0788L11.2983 15.9798L11.7736 15.9006L11.5681 15.5924L11.8977 15.8121L11.984 15.2941L12.0936 15.9515L12.3933 16.2513L12.8765 16.0512V15.5882L12.8795 15.5733L12.5294 15.0832L12.9215 15.3632L12.9941 15L13.0718 15.3885L13.4992 15.0832L13.1118 15.6256V16.0463L13.5758 16.2385L13.8932 15.921L13.9059 15.9126L14.0049 15.3185L14.0841 15.7938L14.3923 15.5883L14.1726 15.9179L14.6906 16.0042L14.0332 16.1138L13.7502 16.3968L13.9513 16.8823H14.3341L14.8764 16.4949L14.5762 16.9152L15 17L14.6014 17.0797L14.8764 17.4647L14.3906 17.1176H13.9513L13.7487 17.6067L14.0089 17.8668L14.6663 17.9764L14.1568 18.0613L14.3965 18.4208L14.0583 18.1954L13.9806 18.6621L13.8824 18.0731L13.5723 17.763L13.1118 17.9537V18.3341L13.4992 18.8764L13.0789 18.5762ZM13.1118 17.7372L13.4192 17.6099L13.1118 17.3025V17.7372ZM13.5956 17.4536L13.7348 17.1176H13.2597L13.5956 17.4536ZM13.7348 16.8823L13.5971 16.5499L13.2647 16.8823H13.7348ZM13.4227 16.3916L13.1118 16.2628V16.7025L13.4227 16.3916ZM12.8765 16.2676L12.5464 16.4044L12.8765 16.7344V16.2676ZM12.3901 16.5808L12.2652 16.8823H12.6916L12.3901 16.5808ZM12.2652 17.1176L12.3916 17.4227L12.6966 17.1176H12.2652ZM12.5499 17.5971L12.8765 17.7324V17.2705L12.5499 17.5971Z" fill="#88EDFF"/>
<path fill-rule="evenodd" clip-rule="evenodd" d="M13.0789 30.5762L12.9941 31L12.9144 30.6014L12.5294 30.8764L12.8765 30.3906V29.9488L12.3968 29.7502L12.118 30.029L12.0084 30.6865L11.9235 30.177L11.5639 30.4167L11.7894 30.0785L11.3227 30.0007L11.9117 29.9026L12.2385 29.5758L12.0487 29.1176H11.5882L11.5733 29.1146L11.0832 29.4647L11.3632 29.0726L11 29L11.3885 28.9223L11.0832 28.495L11.6256 28.8823H12.0487L12.237 28.4277L11.9008 28.0915L11.8924 28.0788L11.2983 27.9798L11.7736 27.9006L11.5681 27.5924L11.8977 27.8121L11.984 27.2941L12.0936 27.9515L12.3933 28.2513L12.8765 28.0512V27.5882L12.8795 27.5733L12.5294 27.0832L12.9215 27.3632L12.9941 27L13.0718 27.3885L13.4992 27.0832L13.1118 27.6256V28.0463L13.5758 28.2385L13.8932 27.921L13.9059 27.9126L14.0049 27.3185L14.0841 27.7938L14.3923 27.5883L14.1726 27.9179L14.6906 28.0042L14.0332 28.1138L13.7502 28.3968L13.9513 28.8823H14.3341L14.8764 28.4949L14.5762 28.9152L15 29L14.6014 29.0797L14.8764 29.4647L14.3906 29.1176H13.9513L13.7487 29.6067L14.0089 29.8668L14.6663 29.9764L14.1568 30.0613L14.3965 30.4208L14.0583 30.1954L13.9806 30.6621L13.8824 30.0731L13.5723 29.763L13.1118 29.9537V30.3341L13.4992 30.8764L13.0789 30.5762ZM13.1118 29.7372L13.4192 29.6099L13.1118 29.3025V29.7372ZM13.5956 29.4536L13.7348 29.1176H13.2597L13.5956 29.4536ZM13.7348 28.8823L13.5971 28.5499L13.2647 28.8823H13.7348ZM13.4227 28.3916L13.1118 28.2628V28.7025L13.4227 28.3916ZM12.8765 28.2676L12.5464 28.4044L12.8765 28.7344V28.2676ZM12.3901 28.5808L12.2652 28.8823H12.6916L12.3901 28.5808ZM12.2652 29.1176L12.3916 29.4227L12.6966 29.1176H12.2652ZM12.5499 29.5971L12.8765 29.7324V29.2705L12.5499 29.5971Z" fill="#88EDFF"/>
<path fill-rule="evenodd" clip-rule="evenodd" d="M16.0789 24.5762L15.9941 25L15.9144 24.6014L15.5294 24.8764L15.8765 24.3906V23.9488L15.3968 23.7502L15.118 24.029L15.0084 24.6865L14.9235 24.177L14.5639 24.4167L14.7894 24.0785L14.3227 24.0007L14.9117 23.9026L15.2385 23.5758L15.0487 23.1176H14.5882L14.5733 23.1146L14.0832 23.4647L14.3632 23.0726L14 23L14.3885 22.9223L14.0832 22.495L14.6256 22.8823H15.0487L15.237 22.4277L14.9008 22.0915L14.8924 22.0788L14.2983 21.9798L14.7736 21.9006L14.5681 21.5924L14.8977 21.8121L14.984 21.2941L15.0936 21.9515L15.3933 22.2513L15.8765 22.0512V21.5882L15.8795 21.5733L15.5294 21.0832L15.9215 21.3632L15.9941 21L16.0718 21.3885L16.4992 21.0832L16.1118 21.6256V22.0463L16.5758 22.2385L16.8932 21.921L16.9059 21.9126L17.0049 21.3185L17.0841 21.7938L17.3923 21.5883L17.1726 21.9179L17.6906 22.0042L17.0332 22.1138L16.7502 22.3968L16.9513 22.8823H17.3341L17.8764 22.4949L17.5762 22.9152L18 23L17.6014 23.0797L17.8764 23.4647L17.3906 23.1176H16.9513L16.7487 23.6067L17.0089 23.8668L17.6663 23.9764L17.1568 24.0613L17.3965 24.4208L17.0583 24.1954L16.9806 24.6621L16.8824 24.0731L16.5723 23.763L16.1118 23.9537V24.3341L16.4992 24.8764L16.0789 24.5762ZM16.1118 23.7372L16.4192 23.6099L16.1118 23.3025V23.7372ZM16.5956 23.4536L16.7348 23.1176H16.2597L16.5956 23.4536ZM16.7348 22.8823L16.5971 22.5499L16.2647 22.8823H16.7348ZM16.4227 22.3916L16.1118 22.2628V22.7025L16.4227 22.3916ZM15.8765 22.2676L15.5464 22.4044L15.8765 22.7344V22.2676ZM15.3901 22.5808L15.2652 22.8823H15.6916L15.3901 22.5808ZM15.2652 23.1176L15.3916 23.4227L15.6966 23.1176H15.2652ZM15.5499 23.5971L15.8765 23.7324V23.2705L15.5499 23.5971Z" fill="#88EDFF"/>
<path fill-rule="evenodd" clip-rule="evenodd" d="M22.0789 24.5762L21.9941 25L21.9144 24.6014L21.5294 24.8764L21.8765 24.3906V23.9488L21.3968 23.7502L21.118 24.029L21.0084 24.6865L20.9235 24.177L20.5639 24.4167L20.7894 24.0785L20.3227 24.0007L20.9117 23.9026L21.2385 23.5758L21.0487 23.1176H20.5882L20.5733 23.1146L20.0832 23.4647L20.3632 23.0726L20 23L20.3885 22.9223L20.0832 22.495L20.6256 22.8823H21.0487L21.237 22.4277L20.9008 22.0915L20.8924 22.0788L20.2983 21.9798L20.7736 21.9006L20.5681 21.5924L20.8977 21.8121L20.984 21.2941L21.0936 21.9515L21.3933 22.2513L21.8765 22.0512V21.5882L21.8795 21.5733L21.5294 21.0832L21.9215 21.3632L21.9941 21L22.0718 21.3885L22.4992 21.0832L22.1118 21.6256V22.0463L22.5758 22.2385L22.8932 21.921L22.9059 21.9126L23.0049 21.3185L23.0841 21.7938L23.3923 21.5883L23.1726 21.9179L23.6906 22.0042L23.0332 22.1138L22.7502 22.3968L22.9513 22.8823H23.3341L23.8764 22.4949L23.5762 22.9152L24 23L23.6014 23.0797L23.8764 23.4647L23.3906 23.1176H22.9513L22.7487 23.6067L23.0089 23.8668L23.6663 23.9764L23.1568 24.0613L23.3965 24.4208L23.0583 24.1954L22.9806 24.6621L22.8824 24.0731L22.5723 23.763L22.1118 23.9537V24.3341L22.4992 24.8764L22.0789 24.5762ZM22.1118 23.7372L22.4192 23.6099L22.1118 23.3025V23.7372ZM22.5956 23.4536L22.7348 23.1176H22.2597L22.5956 23.4536ZM22.7348 22.8823L22.5971 22.5499L22.2647 22.8823H22.7348ZM22.4227 22.3916L22.1118 22.2628V22.7025L22.4227 22.3916ZM21.8765 22.2676L21.5464 22.4044L21.8765 22.7344V22.2676ZM21.3901 22.5808L21.2652 22.8823H21.6916L21.3901 22.5808ZM21.2652 23.1176L21.3916 23.4227L21.6966 23.1176H21.2652ZM21.5499 23.5971L21.8765 23.7324V23.2705L21.5499 23.5971Z" fill="#88EDFF"/>
<defs>
<linearGradient id="paint0_linear_2222_1779" x1="16" y1="0" x2="16" y2="22" gradientUnits="userSpaceOnUse">
<stop stop-color="#95B6F6"/>
<stop offset="1" stop-color="#335781"/>
</linearGradient>
</defs>
</svg>
