<svg width="32" height="31" viewBox="0 0 32 31" fill="none" xmlns="http://www.w3.org/2000/svg">
<path fill-rule="evenodd" clip-rule="evenodd" d="M11.3548 22C5.08367 22 0 17.0752 0 11C0 4.9248 5.08367 0 11.3548 0C16.2891 0 20.4884 3.04883 22.0544 7.30811C22.7528 7.10767 23.4924 7 24.2581 7C28.5338 7 32 10.3579 32 14.5C32 18.6421 28.5338 22 24.2581 22C19.2804 22 16.6173 22 11.3548 22Z" fill="url(#paint0_linear_2222_1780)"/>
<path fill-rule="evenodd" clip-rule="evenodd" d="M9.93713 23.7334V23.2704L9.59916 23.5978L9.93713 23.7334ZM9.93713 23.9489V24.3905L9.57877 24.8765L9.97629 24.6015L10.0586 25L10.146 24.5763L10.5798 24.8764L10.18 24.3342V23.9537L10.6552 23.763L10.9753 24.073L11.0766 24.6621L11.1569 24.1954L11.5062 24.4209L11.2586 24.0612L11.7845 23.9763L11.1059 23.8667L10.8374 23.6067L11.0465 23.1177H11.4999L12.0016 23.4648L11.7177 23.0797L12.129 23L11.6916 22.9153L12.0015 22.4951L11.4417 22.8824H11.0465L10.8389 22.3968L11.1311 22.1137L11.8097 22.0041L11.275 21.9178L11.5018 21.5882L11.1835 21.7937L11.1018 21.3186L10.9996 21.9125L10.9866 21.9209L10.6588 22.2385L10.18 22.0463V21.6255L10.5799 21.0832L10.1388 21.3884L10.0586 21L9.98356 21.3633L9.57889 21.0833L9.9402 21.5733L9.93713 21.5882V22.0511L9.4383 22.2513L9.12894 21.9516L9.01584 21.2942L8.92672 21.8122L8.5865 21.5925L8.79852 21.9006L8.30796 21.9798L8.92116 22.0788L8.92999 22.0916L9.27695 22.4277L9.08257 22.8824H8.64576L8.08588 22.4949L8.40099 22.9223L8 23L8.37504 23.0727L8.08601 23.4647L8.59181 23.1147L8.60721 23.1177H9.08257L9.27843 23.5757L8.94099 23.9026L8.33316 24.0007L8.81482 24.0785L8.58215 24.4166L8.95319 24.177L9.04085 24.6865L9.15396 24.0291L9.44186 23.7501L9.93713 23.9489ZM9.30009 23.1177L9.43223 23.4267L9.75127 23.1177H9.30009ZM9.30008 22.8824H9.74624L9.43076 22.5767L9.30008 22.8824ZM9.5956 22.4037L9.93713 22.7345V22.2666L9.5956 22.4037ZM10.18 22.2618V22.7023L10.5015 22.3909L10.18 22.2618ZM10.6851 22.5458L10.3376 22.8824H10.829L10.6851 22.5458ZM10.829 23.1177H10.3326L10.6836 23.4577L10.829 23.1177ZM10.498 23.6106L10.18 23.3026V23.7382L10.498 23.6106Z" fill="#88EDFF"/>
<path fill-rule="evenodd" clip-rule="evenodd" d="M13.0339 17.7334V17.2704L12.6959 17.5978L13.0339 17.7334ZM13.0339 17.9489V18.3905L12.6755 18.8765L13.0731 18.6015L13.1553 19L13.2428 18.5763L13.6765 18.8764L13.2768 18.3342V17.9537L13.752 17.763L14.0721 18.073L14.1734 18.6621L14.2537 18.1954L14.6029 18.4209L14.3554 18.0612L14.8813 17.9763L14.2026 17.8667L13.9342 17.6067L14.1432 17.1177H14.5967L15.0984 17.4648L14.8144 17.0797L15.2257 17L14.7884 16.9153L15.0982 16.4951L14.5385 16.8824H14.1433L13.9356 16.3968L14.2279 16.1137L14.9065 16.0041L14.3718 15.9178L14.5986 15.5882L14.2803 15.7937L14.1986 15.3186L14.0964 15.9125L14.0834 15.9209L13.7556 16.2385L13.2768 16.0463V15.6255L13.6767 15.0832L13.2355 15.3884L13.1553 15L13.0803 15.3633L12.6757 15.0833L13.037 15.5733L13.0339 15.5882V16.0511L12.5351 16.2513L12.2257 15.9516L12.1126 15.2942L12.0235 15.8122L11.6833 15.5925L11.8953 15.9006L11.4047 15.9798L12.0179 16.0788L12.0268 16.0916L12.3737 16.4277L12.1793 16.8824H11.7425L11.1827 16.4949L11.4978 16.9223L11.0967 17L11.4718 17.0727L11.1828 17.4647L11.6886 17.1147L11.7039 17.1177H12.1793L12.3752 17.5757L12.0378 17.9026L11.4299 18.0007L11.9116 18.0785L11.6789 18.4166L12.05 18.177L12.1376 18.6865L12.2507 18.0291L12.5386 17.7501L13.0339 17.9489ZM12.3969 17.1177L12.529 17.4267L12.848 17.1177H12.3969ZM12.3969 16.8824H12.843L12.5275 16.5767L12.3969 16.8824ZM12.6924 16.4037L13.0339 16.7345V16.2666L12.6924 16.4037ZM13.2768 16.2618V16.7023L13.5983 16.3909L13.2768 16.2618ZM13.7818 16.5458L13.4344 16.8824H13.9257L13.7818 16.5458ZM13.9257 17.1177H13.4294L13.7804 17.4577L13.9257 17.1177ZM13.5947 17.6106L13.2768 17.3026V17.7382L13.5947 17.6106Z" fill="#88EDFF"/>
<path fill-rule="evenodd" clip-rule="evenodd" d="M13.0339 29.7334V29.2704L12.6959 29.5978L13.0339 29.7334ZM13.0339 29.9489V30.3905L12.6755 30.8765L13.0731 30.6015L13.1553 31L13.2428 30.5763L13.6765 30.8764L13.2768 30.3342V29.9537L13.752 29.763L14.0721 30.073L14.1734 30.6621L14.2537 30.1954L14.6029 30.4209L14.3554 30.0612L14.8813 29.9763L14.2026 29.8667L13.9342 29.6067L14.1432 29.1177H14.5967L15.0984 29.4648L14.8144 29.0797L15.2257 29L14.7884 28.9153L15.0982 28.4951L14.5385 28.8824H14.1433L13.9356 28.3968L14.2279 28.1137L14.9065 28.0041L14.3718 27.9178L14.5986 27.5882L14.2803 27.7937L14.1986 27.3186L14.0964 27.9125L14.0834 27.9209L13.7556 28.2385L13.2768 28.0463V27.6255L13.6767 27.0832L13.2355 27.3884L13.1553 27L13.0803 27.3633L12.6757 27.0833L13.037 27.5733L13.0339 27.5882V28.0511L12.5351 28.2513L12.2257 27.9516L12.1126 27.2942L12.0235 27.8122L11.6833 27.5925L11.8953 27.9006L11.4047 27.9798L12.0179 28.0788L12.0268 28.0916L12.3737 28.4277L12.1793 28.8824H11.7425L11.1827 28.4949L11.4978 28.9223L11.0967 29L11.4718 29.0727L11.1828 29.4647L11.6886 29.1147L11.7039 29.1177H12.1793L12.3752 29.5757L12.0378 29.9026L11.4299 30.0007L11.9116 30.0785L11.6789 30.4166L12.05 30.177L12.1376 30.6865L12.2507 30.0291L12.5386 29.7501L13.0339 29.9489ZM12.3969 29.1177L12.529 29.4267L12.848 29.1177H12.3969ZM12.3969 28.8824H12.843L12.5275 28.5767L12.3969 28.8824ZM12.6924 28.4037L13.0339 28.7345V28.2666L12.6924 28.4037ZM13.2768 28.2618V28.7023L13.5983 28.3909L13.2768 28.2618ZM13.7818 28.5458L13.4344 28.8824H13.9257L13.7818 28.5458ZM13.9257 29.1177H13.4294L13.7804 29.4577L13.9257 29.1177ZM13.5947 29.6106L13.2768 29.3026V29.7382L13.5947 29.6106Z" fill="#88EDFF"/>
<path fill-rule="evenodd" clip-rule="evenodd" d="M19.2275 17.7334V17.2704L18.8895 17.5978L19.2275 17.7334ZM19.2275 17.9489V18.3905L18.8691 18.8765L19.2666 18.6015L19.3489 19L19.4364 18.5763L19.8701 18.8764L19.4703 18.3342V17.9537L19.9456 17.763L20.2656 18.073L20.367 18.6621L20.4473 18.1954L20.7965 18.4209L20.549 18.0612L21.0748 17.9763L20.3962 17.8667L20.1277 17.6067L20.3368 17.1177H20.7902L21.2919 17.4648L21.008 17.0797L21.4193 17L20.9819 16.9153L21.2918 16.4951L20.7321 16.8824H20.3368L20.1292 16.3968L20.4214 16.1137L21.1 16.0041L20.5653 15.9178L20.7921 15.5882L20.4738 15.7937L20.3921 15.3186L20.2899 15.9125L20.2769 15.9209L19.9491 16.2385L19.4703 16.0463V15.6255L19.8702 15.0832L19.4291 15.3884L19.3489 15L19.2739 15.3633L18.8692 15.0833L19.2305 15.5733L19.2275 15.5882V16.0511L18.7286 16.2513L18.4193 15.9516L18.3062 15.2942L18.217 15.8122L17.8768 15.5925L18.0888 15.9006L17.5983 15.9798L18.2115 16.0788L18.2203 16.0916L18.5673 16.4277L18.3729 16.8824H17.9361L17.3762 16.4949L17.6913 16.9223L17.2903 17L17.6654 17.0727L17.3763 17.4647L17.8821 17.1147L17.8975 17.1177H18.3729L18.5688 17.5757L18.2313 17.9026L17.6235 18.0007L18.1051 18.0785L17.8725 18.4166L18.2435 18.177L18.3312 18.6865L18.4443 18.0291L18.7322 17.7501L19.2275 17.9489ZM18.5904 17.1177L18.7226 17.4267L19.0416 17.1177H18.5904ZM18.5904 16.8824H19.0366L18.7211 16.5767L18.5904 16.8824ZM18.8859 16.4037L19.2275 16.7345V16.2666L18.8859 16.4037ZM19.4703 16.2618V16.7023L19.7918 16.3909L19.4703 16.2618ZM19.9754 16.5458L19.628 16.8824H20.1193L19.9754 16.5458ZM20.1193 17.1177H19.6229L19.9739 17.4577L20.1193 17.1177ZM19.7883 17.6106L19.4703 17.3026V17.7382L19.7883 17.6106Z" fill="#88EDFF"/>
<path fill-rule="evenodd" clip-rule="evenodd" d="M19.2275 29.7334V29.2704L18.8895 29.5978L19.2275 29.7334ZM19.2275 29.9489V30.3905L18.8691 30.8765L19.2666 30.6015L19.3489 31L19.4364 30.5763L19.8701 30.8764L19.4703 30.3342V29.9537L19.9456 29.763L20.2656 30.073L20.367 30.6621L20.4473 30.1954L20.7965 30.4209L20.549 30.0612L21.0748 29.9763L20.3962 29.8667L20.1277 29.6067L20.3368 29.1177H20.7902L21.2919 29.4648L21.008 29.0797L21.4193 29L20.9819 28.9153L21.2918 28.4951L20.7321 28.8824H20.3368L20.1292 28.3968L20.4214 28.1137L21.1 28.0041L20.5653 27.9178L20.7921 27.5882L20.4738 27.7937L20.3921 27.3186L20.2899 27.9125L20.2769 27.9209L19.9491 28.2385L19.4703 28.0463V27.6255L19.8702 27.0832L19.4291 27.3884L19.3489 27L19.2739 27.3633L18.8692 27.0833L19.2305 27.5733L19.2275 27.5882V28.0511L18.7286 28.2513L18.4193 27.9516L18.3062 27.2942L18.217 27.8122L17.8768 27.5925L18.0888 27.9006L17.5983 27.9798L18.2115 28.0788L18.2203 28.0916L18.5673 28.4277L18.3729 28.8824H17.9361L17.3762 28.4949L17.6913 28.9223L17.2903 29L17.6654 29.0727L17.3763 29.4647L17.8821 29.1147L17.8975 29.1177H18.3729L18.5688 29.5757L18.2313 29.9026L17.6235 30.0007L18.1051 30.0785L17.8725 30.4166L18.2435 30.177L18.3312 30.6865L18.4443 30.0291L18.7322 29.7501L19.2275 29.9489ZM18.5904 29.1177L18.7226 29.4267L19.0416 29.1177H18.5904ZM18.5904 28.8824H19.0366L18.7211 28.5767L18.5904 28.8824ZM18.8859 28.4037L19.2275 28.7345V28.2666L18.8859 28.4037ZM19.4703 28.2618V28.7023L19.7918 28.3909L19.4703 28.2618ZM19.9754 28.5458L19.628 28.8824H20.1193L19.9754 28.5458ZM20.1193 29.1177H19.6229L19.9739 29.4577L20.1193 29.1177ZM19.7883 29.6106L19.4703 29.3026V29.7382L19.7883 29.6106Z" fill="#88EDFF"/>
<path fill-rule="evenodd" clip-rule="evenodd" d="M16.1307 23.7334V23.2704L15.7927 23.5978L16.1307 23.7334ZM16.1307 23.9489V24.3905L15.7723 24.8765L16.1698 24.6015L16.2521 25L16.3396 24.5763L16.7733 24.8764L16.3736 24.3342V23.9537L16.8488 23.763L17.1688 24.073L17.2702 24.6621L17.3505 24.1954L17.6997 24.4209L17.4522 24.0612L17.9781 23.9763L17.2994 23.8667L17.0309 23.6067L17.24 23.1177H17.6935L18.1951 23.4648L17.9112 23.0797L18.3226 23L17.8852 22.9153L18.195 22.4951L17.6353 22.8824H17.24L17.0324 22.3968L17.3247 22.1137L18.0033 22.0041L17.4686 21.9178L17.6954 21.5882L17.3771 21.7937L17.2953 21.3186L17.1931 21.9125L17.1801 21.9209L16.8524 22.2385L16.3736 22.0463V21.6255L16.7734 21.0832L16.3323 21.3884L16.2521 21L16.1771 21.3633L15.7724 21.0833L16.1338 21.5733L16.1307 21.5882V22.0511L15.6318 22.2513L15.3225 21.9516L15.2094 21.2942L15.1203 21.8122L14.78 21.5925L14.9921 21.9006L14.5015 21.9798L15.1147 22.0788L15.1235 22.0916L15.4705 22.4277L15.2761 22.8824H14.8393L14.2794 22.4949L14.5945 22.9223L14.1936 23L14.5686 23.0727L14.2796 23.4647L14.7854 23.1147L14.8008 23.1177H15.2761L15.472 23.5757L15.1345 23.9026L14.5267 24.0007L15.0084 24.0785L14.7757 24.4166L15.1467 24.177L15.2344 24.6865L15.3475 24.0291L15.6354 23.7501L16.1307 23.9489ZM15.4936 23.1177L15.6258 23.4267L15.9448 23.1177H15.4936ZM15.4936 22.8824H15.9398L15.6243 22.5767L15.4936 22.8824ZM15.7891 22.4037L16.1307 22.7345V22.2666L15.7891 22.4037ZM16.3736 22.2618V22.7023L16.6951 22.3909L16.3736 22.2618ZM16.8786 22.5458L16.5312 22.8824H17.0225L16.8786 22.5458ZM17.0225 23.1177H16.5262L16.8771 23.4577L17.0225 23.1177ZM16.6915 23.6106L16.3736 23.3026V23.7382L16.6915 23.6106Z" fill="#88EDFF"/>
<path fill-rule="evenodd" clip-rule="evenodd" d="M22.3242 23.7334V23.2704L21.9863 23.5978L22.3242 23.7334ZM22.3242 23.9489V24.3905L21.9659 24.8765L22.3634 24.6015L22.4457 25L22.5331 24.5763L22.9669 24.8764L22.5671 24.3342V23.9537L23.0423 23.763L23.3624 24.073L23.4637 24.6621L23.544 24.1954L23.8933 24.4209L23.6457 24.0612L24.1716 23.9763L23.493 23.8667L23.2245 23.6067L23.4336 23.1177H23.887L24.3887 23.4648L24.1048 23.0797L24.5162 23L24.0787 22.9152L24.3886 22.4951L23.8288 22.8824H23.4336L23.226 22.3968L23.5182 22.1137L24.1968 22.0041L23.6621 21.9178L23.8889 21.5882L23.5706 21.7937L23.4889 21.3186L23.3867 21.9125L23.3737 21.9209L23.0459 22.2385L22.5671 22.0463V21.6255L22.967 21.0832L22.5259 21.3884L22.4457 21L22.3707 21.3633L21.966 21.0833L22.3273 21.5733L22.3242 21.5882V22.0511L21.8254 22.2513L21.516 21.9516L21.4029 21.2942L21.3138 21.8122L20.9736 21.5925L21.1856 21.9006L20.6951 21.9798L21.3083 22.0788L21.3171 22.0916L21.664 22.4277L21.4697 22.8824H21.0329L20.473 22.4949L20.7881 22.9223L20.3872 23L20.7622 23.0727L20.4731 23.4647L20.9789 23.1147L20.9944 23.1177H21.4697L21.6655 23.5757L21.3281 23.9026L20.7203 24.0007L21.2019 24.0785L20.9693 24.4166L21.3403 24.177L21.4279 24.6865L21.5411 24.0291L21.829 23.7501L22.3242 23.9489ZM21.6872 23.1177L21.8193 23.4267L22.1384 23.1177H21.6872ZM21.6872 22.8824H22.1333L21.8179 22.5767L21.6872 22.8824ZM21.9827 22.4037L22.3242 22.7345V22.2666L21.9827 22.4037ZM22.5671 22.2618V22.7023L22.8886 22.3909L22.5671 22.2618ZM23.0722 22.5458L22.7247 22.8824H23.2161L23.0722 22.5458ZM23.2161 23.1177H22.7197L23.0707 23.4577L23.2161 23.1177ZM22.885 23.6106L22.5671 23.3026V23.7382L22.885 23.6106Z" fill="#88EDFF"/>
<defs>
<linearGradient id="paint0_linear_2222_1780" x1="16" y1="0" x2="16" y2="22" gradientUnits="userSpaceOnUse">
<stop stop-color="#95B6F6"/>
<stop offset="1" stop-color="#335781"/>
</linearGradient>
</defs>
</svg>
