<svg width="28" height="28" viewBox="0 0 28 28" fill="none" xmlns="http://www.w3.org/2000/svg">
<path fill-rule="evenodd" clip-rule="evenodd" d="M14 23C18.9706 23 23 18.9706 23 14C23 9.02944 18.9706 5 14 5C9.02944 5 5 9.02944 5 14C5 18.9706 9.02944 23 14 23Z" fill="#FFAA00"/>
<path fill-rule="evenodd" clip-rule="evenodd" d="M14 3C13.4477 3 13 2.55228 13 2V1C13 0.447715 13.4477 0 14 0V0C14.5523 0 15 0.447715 15 1V2C15 2.55228 14.5523 3 14 3V3ZM19.5001 4.47381C19.0218 4.19767 18.8579 3.58608 19.134 3.10778L19.634 2.24176C19.9102 1.76346 20.5218 1.59959 21.0001 1.87573V1.87573C21.4784 2.15187 21.6422 2.76347 21.3661 3.24176L20.8661 4.10778C20.5899 4.58608 19.9784 4.74995 19.5001 4.47381V4.47381ZM25 14C25 13.4477 25.4477 13 26 13H27C27.5523 13 28 13.4477 28 14V14C28 14.5523 27.5523 15 27 15H26C25.4477 15 25 14.5523 25 14V14ZM26.1243 7C25.8482 6.52171 25.2366 6.35783 24.7583 6.63397L23.8923 7.13397C23.414 7.41012 23.2501 8.02171 23.5263 8.5V8.5C23.8024 8.97829 24.414 9.14217 24.8923 8.86603L25.7583 8.36603C26.2366 8.08988 26.4005 7.47829 26.1243 7V7ZM7 1.87573C6.52171 2.15187 6.35783 2.76347 6.63397 3.24176L7.13397 4.10778C7.41012 4.58608 8.02171 4.74995 8.5 4.47381V4.47381C8.97829 4.19767 9.14217 3.58608 8.86603 3.10778L8.36603 2.24176C8.08988 1.76347 7.47829 1.59959 7 1.87573V1.87573ZM4.47375 8.5C4.19761 8.97829 3.58601 9.14217 3.10772 8.86603L2.2417 8.36603C1.7634 8.08988 1.59953 7.47829 1.87567 7V7C2.15181 6.52171 2.7634 6.35783 3.2417 6.63397L4.10772 7.13397C4.58601 7.41012 4.74989 8.02171 4.47375 8.5V8.5ZM14 25C13.4477 25 13 25.4477 13 26V27C13 27.5523 13.4477 28 14 28V28C14.5523 28 15 27.5523 15 27V26C15 25.4477 14.5523 25 14 25V25ZM3 14C3 13.4477 2.55228 13 2 13H1C0.447715 13 0 13.4477 0 14V14C0 14.5523 0.447715 15 1 15H2C2.55228 15 3 14.5523 3 14V14ZM1.87562 21C1.59948 20.5217 1.76335 19.9101 2.24164 19.634L3.10767 19.134C3.58596 18.8578 4.19755 19.0217 4.47369 19.5V19.5C4.74984 19.9783 4.58596 20.5899 4.10767 20.866L3.24164 21.366C2.76335 21.6422 2.15176 21.4783 1.87562 21V21ZM8.50006 23.5264C8.02177 23.2502 7.41018 23.4141 7.13404 23.8924L6.63404 24.7584C6.35789 25.2367 6.52177 25.8483 7.00006 26.1244V26.1244C7.47835 26.4006 8.08994 26.2367 8.36609 25.7584L8.86609 24.8924C9.14223 24.4141 8.97835 23.8025 8.50006 23.5264V23.5264ZM21 26.1244C20.5217 26.4006 19.9101 26.2367 19.634 25.7584L19.134 24.8924C18.8578 24.4141 19.0217 23.8025 19.5 23.5264V23.5264C19.9783 23.2502 20.5899 23.4141 20.866 23.8924L21.366 24.7584C21.6422 25.2367 21.4783 25.8483 21 26.1244V26.1244ZM23.5263 19.5C23.2502 19.9783 23.414 20.5899 23.8923 20.866L24.7584 21.366C25.2366 21.6422 25.8482 21.4783 26.1244 21V21C26.4005 20.5217 26.2366 19.9101 25.7584 19.634L24.8923 19.134C24.414 18.8578 23.8024 19.0217 23.5263 19.5V19.5Z" fill="#FFF999"/>
</svg>
