<svg width="18" height="24" viewBox="0 0 18 24" fill="none" xmlns="http://www.w3.org/2000/svg">
<path fill-rule="evenodd" clip-rule="evenodd" d="M0 15.9005C0 10.4637 5.13123 3.90772 7.64477 1.02238C7.88035 0.751957 8.09293 0.513777 8.27614 0.311784C8.66277 -0.114479 9.32319 -0.101471 9.6955 0.337356C9.87178 0.545135 10.0765 0.789607 10.3037 1.06629C12.7979 4.10374 18 11.0235 18 15.9005C18 20.1179 13.9706 23.5367 9 23.5367C4.02944 23.5367 0 20.1179 0 15.9005Z" fill="#5193DE"/>
<path d="M6.16073 13.9248C6.05675 14.3348 6 14.7237 6 15.0824C6 16.0092 6.73409 17.0444 8.01174 17.4048C8.54328 17.5547 9 17.9846 9 18.5369C9 19.0891 8.54864 19.5464 8.00508 19.4487C5.72031 19.0377 4 17.239 4 15.0824C4 14.4669 4.10737 13.8268 4.29064 13.1826C4.40196 12.7912 4.7699 12.5369 5.17675 12.5369C5.87137 12.5369 6.33149 13.2515 6.16073 13.9248Z" fill="#B2D4F7"/>
</svg>
