<svg width="33" height="22" viewBox="0 0 33 22" fill="none" xmlns="http://www.w3.org/2000/svg">
<path fill-rule="evenodd" clip-rule="evenodd" d="M24.0001 8L9.00002 8.00002C8.44774 8.00002 8.00002 8.44773 8.00002 9.00002C8.00002 9.5523 8.44774 10 9.00003 10L24.0001 10C24.0654 10 24.1309 9.99872 24.1964 9.99614C25.3186 9.95205 26.3933 9.53142 27.2473 8.80203C28.1013 8.07264 28.6849 7.07696 28.904 5.97545C29.1231 4.87394 28.965 3.73073 28.4551 2.73005C27.9452 1.72936 27.1133 0.929482 26.0934 0.459288C25.0735 -0.0109064 23.9249 -0.124027 22.8329 0.138154C21.7408 0.400335 20.7688 1.02255 20.0735 1.90453C19.3803 2.7839 19.0024 3.87043 19.0001 4.98999L19.0001 5.00001C19.0001 5.55229 19.4478 6.00001 20.0001 6.00001C20.5524 6.00001 21.0001 5.55229 21.0001 5C21.0001 4.32614 21.227 3.67191 21.6442 3.14272C22.0613 2.61353 22.6445 2.2402 23.2998 2.08289C23.955 1.92558 24.6441 1.99345 25.2561 2.27557C25.868 2.55769 26.3672 3.03762 26.6731 3.63803C26.979 4.23844 27.0739 4.92436 26.9424 5.58527C26.811 6.24618 26.4608 6.84358 25.9484 7.28122C25.436 7.71885 24.7912 7.97123 24.1179 7.99769C24.0786 7.99923 24.0393 8 24.0001 8ZM0 9.00002C0 8.44773 0.447717 8.00002 1 8.00002H5.00001C5.5523 8.00002 6.00002 8.44773 6.00002 9.00002C6.00002 9.5523 5.5523 10 5.00001 10H1C0.447717 10 0 9.5523 0 9.00002ZM1 12C0.447717 12 0 12.4477 0 13C0 13.5523 0.447717 14 1 14H10C10.5523 14 11 13.5523 11 13C11 12.4477 10.5523 12 10 12H1ZM14 12C13.4478 12 13 12.4477 13 13C13 13.5523 13.4478 14 14 14H28.0001C28.5524 14 29.0001 13.5523 29.0001 13C29.0001 12.4477 28.5524 12 28.0001 12H14ZM7.00002 16C6.44773 16 6.00002 16.4478 6.00002 17C6.00002 17.5523 6.44773 18 7.00002 18H13C13.5523 18 14 17.5523 14 17C14 16.4478 13.5523 16 13 16H7.00002ZM27.4021 20.5002C27.7188 21.0489 28.2012 21.4831 28.78 21.7409C29.3587 21.9986 30.0042 22.0665 30.624 21.9348C31.2436 21.8028 31.8055 21.4784 32.2296 21.0078C32.384 20.8363 32.5172 20.6486 32.6274 20.4488C32.8196 20.0999 32.9417 19.7143 32.9837 19.3139C33.0498 18.6838 32.915 18.0489 32.5982 17.5002C32.2814 16.9516 31.7991 16.5174 31.2203 16.2596C30.8341 16.0876 30.4182 16.0002 30 16.0002L17.0001 16C16.4478 16 16 16.4478 16 17.0001C16 17.5525 16.4478 18.0002 17.0001 18.0002H30C30.0237 18.0002 30.0474 18.0011 30.071 18.0028C30.1862 18.011 30.3 18.0392 30.4069 18.0866C30.5997 18.1726 30.7606 18.3174 30.8662 18.5002C30.9718 18.6831 31.0167 18.8948 30.9948 19.1048C30.9725 19.3148 30.8845 19.5124 30.7434 19.6694C30.6485 19.7747 30.5331 19.8579 30.4049 19.9148C30.3737 19.9286 30.3418 19.9407 30.3093 19.9513C30.2761 19.9621 30.2424 19.9711 30.208 19.9785C30.0015 20.0222 29.7863 19.9996 29.5934 19.9139C29.4005 19.8279 29.2397 19.6831 29.1341 19.5002C28.858 19.022 28.2463 18.8581 27.7681 19.1342C27.2898 19.4103 27.1259 20.022 27.4021 20.5002Z" fill="url(#paint0_linear_2234_918)"/>
<defs>
<linearGradient id="paint0_linear_2234_918" x1="0" y1="11.0001" x2="33.0001" y2="11.0001" gradientUnits="userSpaceOnUse">
<stop stop-color="#DEFAFF"/>
<stop offset="1" stop-color="#B2D4F7"/>
</linearGradient>
</defs>
</svg>
